<svg xmlns="http://www.w3.org/2000/svg" viewBox="0 0 1634.000000 721.000000" fill="#566a7a" role="img" aria-label="Yale University">
<g transform="translate(0.000000,721.000000) scale(0.100000,-0.100000)"
fill="#566a7a" stroke="none">
<path d="M10810 6895 c-377 -95 -778 -197 -892 -225 -208 -52 -208 -52 -208
-151 0 -98 0 -98 33 -103 495 -69 613 -122 675 -300 26 -77 32 -5347 6 -5402
-71 -150 -287 -246 -599 -266 -40 -3 -40 -3 -43 -115 -3 -113 -3 -113 1103
-113 1106 0 1106 0 1103 113 -3 112 -3 112 -83 119 -315 26 -523 118 -599 267
-14 27 -16 325 -16 2926 0 2897 0 2897 137 3068 75 95 140 177 144 183 12 15
-44 169 -62 171 -8 1 -322 -77 -699 -172z"/>
<path d="M140 6401 c0 -129 0 -129 63 -136 494 -53 741 -195 995 -572 23 -33
150 -245 283 -470 133 -224 305 -516 384 -648 136 -229 272 -459 745 -1260
117 -198 237 -401 266 -450 54 -91 54 -91 54 -1049 0 -957 0 -957 -31 -1002
-125 -182 -496 -305 -998 -330 -131 -7 -131 -7 -131 -136 0 -128 0 -128 1600
-128 1600 0 1600 0 1600 128 0 129 0 129 -127 136 -513 27 -823 178 -972 473
-21 42 -21 44 -21 968 0 927 0 927 33 983 19 31 313 527 654 1102 341 575 657
1108 703 1185 227 383 278 466 332 542 237 331 535 492 981 528 87 7 87 7 87
136 0 129 0 129 -1190 129 -1190 0 -1190 0 -1190 -129 0 -129 0 -129 78 -135
131 -12 332 -45 432 -71 104 -28 297 -117 347 -162 32 -28 32 -28 -26 -128
-32 -55 -125 -219 -208 -365 -236 -415 -662 -1165 -928 -1630 -133 -234 -259
-456 -280 -493 -30 -56 -40 -66 -50 -55 -7 7 -68 110 -135 228 -68 118 -163
283 -210 365 -96 165 -725 1253 -1003 1735 -97 168 -178 312 -182 321 -7 19
101 95 191 135 126 56 331 99 562 119 82 7 82 7 82 136 0 129 0 129 -1395 129
-1395 0 -1395 0 -1395 -129z"/>
<path d="M7435 4484 c-724 -109 -1332 -555 -1569 -1150 -42 -108 -48 -174 -15
-174 21 0 872 139 874 143 1 1 7 48 13 105 40 355 204 628 422 708 65 23 208
21 288 -5 233 -75 384 -269 454 -581 22 -101 23 -120 23 -554 0 -448 0 -448
-70 -473 -38 -14 -398 -144 -800 -290 -401 -145 -811 -294 -910 -329 -99 -36
-185 -71 -192 -77 -46 -46 -138 -288 -175 -457 -29 -137 -36 -397 -13 -511 70
-347 305 -578 695 -680 124 -33 405 -34 530 -1 294 75 626 277 874 531 60 60
60 60 77 -9 64 -249 262 -440 544 -521 69 -20 103 -23 240 -23 157 0 162 1
250 33 227 84 420 214 627 425 98 98 98 98 98 237 0 77 -3 139 -6 139 -3 0
-39 -29 -79 -64 -196 -171 -340 -231 -497 -206 -165 25 -261 112 -315 285 -17
55 -18 96 -14 525 1 256 4 501 6 545 1 44 6 377 10 740 7 590 6 672 -9 775
-74 507 -332 786 -823 890 -96 20 -456 36 -538 24z m489 -2876 c-7 -761 14
-662 -167 -783 -351 -237 -701 -258 -898 -54 -139 144 -191 352 -160 649 11
104 51 314 63 325 7 8 378 180 628 292 129 58 296 134 370 168 74 35 143 63
153 64 17 1 18 -28 11 -661z"/>
<path d="M14375 4474 c-285 -41 -455 -90 -670 -194 -688 -332 -1113 -1042
-1176 -1961 -76 -1127 551 -1999 1555 -2159 234 -38 580 -22 836 39 311 73
633 241 949 496 123 98 334 282 338 293 2 4 -30 58 -70 120 -73 112 -73 112
-123 70 -417 -356 -688 -472 -1104 -472 -831 0 -1420 613 -1479 1539 -8 136
-1 445 14 574 8 64 8 64 1333 57 729 -4 1330 -8 1336 -9 22 -4 12 414 -13 533
-123 581 -497 937 -1108 1051 -104 20 -529 35 -618 23z m272 -329 c291 -92
511 -386 577 -774 9 -52 16 -118 16 -148 0 -53 0 -53 -182 -53 -366 0 -1356
-10 -1455 -15 -119 -6 -112 -14 -84 107 111 472 377 795 731 887 116 30 295
29 397 -4z"/>
</g>
</svg>
